<svg width="1382" height="559" viewBox="0 0 1382 559" fill="none" xmlns="http://www.w3.org/2000/svg">
<g filter="url(#filter0_i_701_965)">
<path d="M456.469 558.885C442.073 558.885 428.96 553.096 419.262 543.026C409.564 553.036 396.372 558.885 382.055 558.885C360.266 558.885 341.424 545.635 332.895 524.308C332.757 523.953 332.618 523.606 332.488 523.251L295.766 424.684C290.471 422.578 285.548 419.649 281.188 415.966C269.548 406.113 262.866 391.753 262.866 376.553C262.866 347.73 286.709 324.28 316.012 324.28H373.405C381.795 324.28 389.95 326.126 397.274 329.61C405.724 323.795 415.778 320.528 426.473 320.528C437.853 320.528 448.34 324.02 456.955 330.251C464.608 326.351 473.24 324.272 482.141 324.272H521.654C550.957 324.272 574.8 347.722 574.8 376.545C574.8 391.745 568.126 406.104 556.486 415.957C552.144 419.632 547.23 422.561 541.952 424.667L506.166 522.921C505.992 523.389 505.819 523.849 505.637 524.317C495.436 549.812 473.552 558.894 456.478 558.894L456.469 558.885Z" fill="white"/>
<path d="M242.577 558.886C214.435 558.886 186.692 553.79 168.041 545.228C148.601 536.675 135.999 517.783 135.505 496.378C135.505 496.378 133.217 436.548 133.217 436.505C132.671 421.175 137.984 406.919 148.176 396.356C149.962 394.501 151.877 392.803 153.905 391.251C146.85 376.692 143.279 360.764 143.279 343.675C143.279 283.637 191.589 240.065 258.152 240.065C275.217 240.065 297.76 241.304 320.901 250.941C321.369 251.131 321.828 251.339 322.287 251.547C342.499 260.733 354.554 279.434 354.554 301.576V343.684C354.554 356.561 350.126 368.928 342.074 378.504C339.907 381.086 337.515 383.426 334.95 385.506C356.279 409.606 360.907 434.494 360.907 451.54C360.907 479.973 348.505 507.722 326.889 527.662C305.057 547.802 275.113 558.894 242.577 558.894V558.886Z" fill="white"/>
<path d="M540.774 555.142C527.556 555.142 514.929 550.557 505.213 542.229C493.669 532.341 487.056 517.991 487.056 502.869C487.056 488.769 492.88 475.111 503.038 465.397C505.248 463.282 507.622 461.385 510.127 459.712V419.658C497.56 409.935 489.942 395.211 489.942 378.867C489.942 353.424 508.056 332.366 533.987 327.651L568.473 321.386C571.975 320.701 575.52 320.363 579.03 320.363C608.411 320.363 631.43 343.657 631.43 373.399V459.729C633.944 461.402 636.318 463.3 638.529 465.414C648.686 475.129 654.51 488.786 654.51 502.886C654.51 518.008 647.889 532.35 636.353 542.247C626.637 550.575 614.001 555.168 600.784 555.168H540.791L540.774 555.142Z" fill="white"/>
<path d="M567.303 380.956C549.484 380.956 532.835 374.049 520.432 361.509C508.203 349.143 501.469 332.669 501.469 315.12C501.469 297.572 508.272 281.15 520.623 268.801C533.017 256.4 549.596 249.58 567.312 249.58C585.027 249.58 601.598 256.408 614.001 268.801C626.351 281.15 633.155 297.598 633.155 315.12C633.155 332.643 626.421 349.143 614.192 361.509C601.789 374.049 585.14 380.956 567.32 380.956H567.303Z" fill="white"/>
<path d="M763.107 558.886C734.567 558.886 706.486 546.883 686.049 525.946C664.824 504.203 653.141 474.496 653.141 442.302C653.141 410.108 663.506 382.455 682.331 360.192C703.964 334.61 734.706 320.52 768.88 320.52C789.81 320.52 809.138 325.026 824.764 333.553C848.694 346.604 862.986 369.144 862.986 393.851C862.986 407.352 858.747 419.875 851.554 430.135C871.15 446.124 876.376 473.5 863.8 496.56C863.471 497.158 863.133 497.756 862.778 498.345C852.291 515.738 841.231 528.399 827.988 538.174C809.372 551.918 787.548 558.886 763.116 558.886H763.107Z" fill="white"/>
<path d="M1165.36 558.885C1152.37 558.885 1132.73 557.559 1112.79 551.242C1090.18 544.231 1075.48 524.585 1075.01 500.849L1073.88 468.586C1073.45 457.389 1076.28 446.713 1081.95 437.631C1078.12 427.674 1076.15 416.85 1076.15 405.394C1076.15 380.358 1087.43 357.046 1107.11 341.447C1124.36 327.764 1147 320.528 1172.56 320.528C1186.46 320.528 1200.91 322.174 1215.5 325.415C1216.23 325.58 1216.97 325.762 1217.7 325.961C1241.4 332.426 1257.41 353.103 1257.72 377.559L1258.3 404.085C1258.3 404.423 1258.3 404.77 1258.3 405.108C1258.3 412.214 1256.94 419.164 1254.35 425.568C1262.66 438.212 1266.96 452.952 1266.96 469.123C1266.96 494.324 1255.65 518.311 1235.93 534.941C1217.34 550.609 1192.94 558.885 1165.36 558.885Z" fill="white"/>
<path d="M654.294 558.885C633.389 558.885 614.2 550.999 600.272 536.683C586.093 522.107 578.622 501.837 579.238 479.618L580.737 422.561C565.197 413.418 554.987 396.667 554.987 377.125C554.987 364.343 559.312 346.127 579.888 331.768L608.307 311.68C609.503 310.839 610.551 310.059 611.479 309.384C618.464 304.271 630.147 295.717 648.235 295.717C663.706 295.717 678.197 302.364 688.017 313.959C690.47 316.862 693.13 320.649 695.358 325.372C720.345 330.355 738.597 351.552 738.597 377.689C738.597 401.988 722.823 422.024 700.523 428.723V441.947C719.703 444.2 735.893 456.627 742.749 474.886C750.48 495.468 744.5 518.372 727.504 533.234C727.382 533.338 727.261 533.451 727.14 533.555C708.09 549.881 682.219 558.868 654.294 558.868V558.885Z" fill="white"/>
<path d="M1048.43 558.886C1019.4 558.886 991.067 546.84 970.699 525.842C949.725 504.221 938.181 474.548 938.181 442.302C938.181 411.971 948.416 382.932 967.016 360.53C988.432 334.732 1018.47 320.52 1051.61 320.52C1064.07 320.52 1088.34 322.521 1110.98 335.928C1138.37 352.15 1154.08 379.985 1154.08 412.301C1154.08 423.09 1151.22 432.934 1146.17 441.176C1157 457.087 1158.29 478.188 1148.26 496.551C1147.93 497.149 1147.59 497.747 1147.24 498.336C1140.67 509.238 1129.96 525.201 1112.95 537.957C1094.44 551.84 1072.74 558.877 1048.44 558.877L1048.43 558.886Z" fill="white"/>
<path d="M916.054 555.141C911.582 555.141 907.179 554.613 902.932 553.599C898.685 554.613 894.283 555.141 889.81 555.141H829.818C816.6 555.141 803.973 550.557 794.257 542.229C782.713 532.341 776.1 517.99 776.1 502.868C776.1 488.769 781.924 475.111 792.082 465.396C794.292 463.282 796.666 461.384 799.18 459.712V328.812C786.613 319.089 778.994 304.365 778.994 288.021C778.994 262.578 797.108 241.52 823.04 236.806L857.526 230.54C861.027 229.856 864.572 229.518 868.082 229.518C897.463 229.518 920.483 252.812 920.483 282.553V321.654C922.814 321.489 925.189 321.403 927.616 321.403C967.484 321.403 986.967 343.38 995.036 356.483C995.132 356.639 995.227 356.786 995.314 356.942C1006.72 375.955 1006.72 393.738 1006.72 409.44V459.72C1009.23 461.393 1011.61 463.291 1013.82 465.405C1023.98 475.12 1029.8 488.777 1029.8 502.877C1029.8 517.999 1023.18 532.341 1011.64 542.238C1001.93 550.566 989.29 555.158 976.073 555.158H916.08L916.054 555.141Z" fill="white"/>
<path d="M1274.58 315.363C1245.55 315.363 1217.22 303.317 1196.85 282.32C1175.87 260.698 1164.33 231.026 1164.33 198.78C1164.33 168.449 1174.56 139.409 1193.16 117.008C1214.58 91.2093 1244.62 76.9971 1277.76 76.9971C1290.22 76.9971 1314.48 78.9989 1337.13 92.4052C1364.52 108.628 1380.23 136.463 1380.23 168.778C1380.23 179.567 1377.36 189.412 1372.32 197.653C1383.15 213.564 1384.44 234.666 1374.42 253.029C1374.09 253.635 1373.75 254.233 1373.39 254.814C1366.82 265.716 1356.11 281.678 1339.1 294.435C1320.59 308.318 1298.88 315.363 1274.59 315.363H1274.58Z" fill="white"/>
<path d="M724.687 315.363C711.695 315.363 692.047 314.037 672.104 307.711C649.501 300.7 634.801 281.055 634.342 257.318L633.207 225.055C632.782 213.859 635.608 203.182 641.276 194.1C637.445 184.143 635.478 173.319 635.478 161.863C635.478 136.827 646.762 113.515 666.436 97.9167C683.692 84.2332 706.33 76.9971 731.889 76.9971C745.791 76.9971 760.239 78.6436 774.817 81.8847C775.553 82.0493 776.29 82.2313 777.027 82.4306C800.731 88.8954 816.739 109.581 817.051 134.028L817.623 160.554C817.623 160.892 817.632 161.239 817.632 161.577C817.632 168.683 816.271 175.633 813.679 182.037C821.982 194.681 826.29 209.422 826.29 225.592C826.29 250.793 814.979 274.78 795.253 291.41C776.671 307.078 752.265 315.363 724.687 315.363Z" fill="white"/>
<path d="M961.244 315.363C939.966 315.363 919.92 308.569 904.796 296.237C886.283 281.133 876.082 259.121 876.082 234.25C876.082 217.074 881.118 201.336 890.599 188.173C882.123 177.566 877.529 164.489 877.529 150.623C877.529 123.204 894.733 99.494 923.551 87.2057C938.978 80.6282 958.202 77.0059 977.694 77.0059C999.587 77.0059 1018.62 81.2695 1034.26 89.6842C1061.23 104.182 1076.7 130.388 1076.7 161.586C1076.7 170 1076.19 181.075 1075.65 192.792C1075.28 200.825 1074.89 209.075 1074.75 215.367C1087.04 225.055 1094.29 239.891 1094.29 255.594C1094.29 279.625 1077.75 299.92 1053.11 306.134L1029.42 312.131C1023.32 313.725 1017.61 314.505 1011.96 314.505C1004.84 314.505 997.983 313.231 991.648 310.788C982.062 313.795 971.835 315.372 961.253 315.372L961.244 315.363Z" fill="white"/>
<path d="M852.456 315.363C823.916 315.363 795.835 303.361 775.398 282.424C754.172 260.681 742.489 230.974 742.489 198.78C742.489 166.586 752.855 138.933 771.671 116.67C793.304 91.0879 824.046 76.9971 858.219 76.9971C879.15 76.9971 898.478 81.5034 914.104 90.0307C938.034 103.082 952.326 125.622 952.326 150.328C952.326 163.83 948.087 176.352 940.894 186.613C960.49 202.602 965.716 229.977 953.14 253.037C952.811 253.635 952.473 254.233 952.118 254.823C941.631 272.215 930.572 284.876 917.328 294.651C898.712 308.396 876.888 315.363 852.456 315.363Z" fill="white"/>
<path d="M607.769 315.363C578.735 315.363 550.403 303.317 530.035 282.32C509.061 260.698 497.517 231.026 497.517 198.78C497.517 168.449 507.752 139.409 526.352 117.008C547.768 91.2093 577.808 76.9971 610.95 76.9971C623.405 76.9971 647.672 78.9989 670.319 92.4052C697.707 108.628 713.42 136.463 713.42 168.778C713.42 179.567 710.551 189.421 705.507 197.653C716.341 213.555 717.623 234.657 707.604 253.02C707.275 253.627 706.928 254.225 706.573 254.814C700.003 265.716 689.3 281.678 672.286 294.435C653.774 308.318 632.072 315.354 607.778 315.354L607.769 315.363Z" fill="white"/>
<path d="M96.4341 311.611C66.3077 311.611 42.7075 288.776 42.7075 259.624C42.7075 245.524 48.5317 231.867 58.6894 222.152C64.8083 216.302 72.1666 212.099 80.2009 209.76V144.852C71.9326 150.207 62.0955 153.24 51.6432 153.24C36.8573 153.24 22.7734 146.992 13.0231 136.09C3.40272 125.345 -1.23411 110.89 0.28261 96.3829L5.14479 48.3561C6.54017 33.208 14.1758 19.4724 26.1796 10.5725C35.5052 3.65705 46.833 0 58.9494 0H243.539C264.114 0 283.329 7.04544 297.647 19.8364C313.395 33.9013 322.07 53.417 322.07 74.7786C322.07 96.1402 314.097 114.59 299.623 128.742C285.53 142.529 266.74 150.121 246.711 150.121C231.206 150.121 220.207 144.254 213.707 139.331C210.778 137.113 207.502 134.14 204.39 130.258V209.768C212.424 212.099 219.791 216.311 225.902 222.161C236.059 231.875 241.883 245.533 241.883 259.632C241.883 288.785 218.283 311.619 188.157 311.619H96.4428L96.4341 311.611Z" fill="white"/>
<path d="M1047.69 375.063C1034.47 375.063 1021.84 370.479 1012.13 362.151C1000.58 352.263 993.96 337.912 993.96 322.79C993.96 308.69 999.784 295.033 1009.94 285.318C1012.15 283.204 1014.53 281.306 1017.03 279.634V176.136C1004.46 166.413 996.846 151.689 996.846 135.345C996.846 109.902 1014.96 88.835 1040.89 84.1294L1075.38 77.8639C1078.88 77.1793 1082.42 76.8413 1085.93 76.8413C1093.78 76.8413 1101.17 78.5052 1107.79 81.5122C1117.06 79.2938 1127.47 77.8899 1139.11 77.8899C1169.28 77.8899 1196.85 89.7709 1216.74 111.349C1235.73 131.957 1246.19 160.147 1246.19 190.721C1246.19 221.294 1234.82 252.544 1214.16 275.543C1199.88 291.463 1182.14 302.85 1162.41 309.054C1163.63 313.5 1164.27 318.128 1164.27 322.799C1164.27 337.921 1157.65 352.272 1146.11 362.16C1136.39 370.488 1123.76 375.072 1110.55 375.072H1047.67L1047.69 375.063Z" fill="white"/>
<path d="M228.527 311.611C215.31 311.611 202.682 307.026 192.958 298.69C181.414 288.802 174.801 274.451 174.801 259.329C174.801 245.229 180.625 231.572 190.783 221.857C192.993 219.743 195.368 217.845 197.881 216.172V176.118C185.314 166.395 177.696 151.672 177.696 135.328C177.696 109.884 195.81 88.8174 221.741 84.1118L256.218 77.8463C259.72 77.1617 263.265 76.8237 266.775 76.8237C296.156 76.8237 319.175 100.118 319.175 129.859V216.19C321.689 217.862 324.055 219.76 326.265 221.875C336.423 231.589 342.247 245.247 342.247 259.346C342.247 274.468 335.625 288.819 324.081 298.707C314.365 307.035 301.729 311.619 288.52 311.619H228.527V311.611Z" fill="white"/>
<path d="M475.243 311.611C471.724 311.611 468.248 311.281 464.86 310.649C461.471 311.281 457.995 311.611 454.477 311.611H394.484C390.965 311.611 387.489 311.281 384.101 310.649C380.712 311.281 377.236 311.611 373.718 311.611H313.725C300.508 311.611 287.88 307.026 278.155 298.69C266.611 288.802 259.998 274.451 259.998 259.329C259.998 245.229 265.822 231.572 275.98 221.857C278.19 219.743 280.565 217.845 283.07 216.172V176.118C270.502 166.395 262.884 151.672 262.884 135.328C262.884 109.884 280.998 88.8174 306.93 84.1118L341.416 77.8463C344.917 77.1617 348.462 76.8237 351.963 76.8237C360.622 76.8237 368.734 78.8516 375.858 82.4653C385.288 79.7788 395.584 77.8723 406.011 77.8723C419.956 77.8723 432.896 80.8967 444.119 86.5816C456.531 81.9627 471.498 77.8723 486.77 77.8723C515.665 77.8723 540.236 90.8713 554.19 113.533C554.285 113.689 554.381 113.836 554.468 113.992C565.873 133.005 565.873 150.788 565.873 166.49V216.19C568.387 217.862 570.753 219.76 572.963 221.875C583.121 231.589 588.945 245.247 588.945 259.346C588.945 274.468 582.323 288.819 570.779 298.707C561.063 307.035 548.427 311.619 535.218 311.619H475.225L475.243 311.611Z" fill="white"/>
<path d="M456.469 558.885C442.073 558.885 428.96 553.096 419.262 543.026C409.564 553.036 396.372 558.885 382.055 558.885C360.266 558.885 341.424 545.635 332.895 524.308C332.757 523.953 332.618 523.606 332.488 523.251L295.766 424.684C290.471 422.578 285.548 419.649 281.188 415.966C269.548 406.113 262.866 391.753 262.866 376.553C262.866 347.73 286.709 324.28 316.012 324.28H373.405C381.795 324.28 389.95 326.126 397.274 329.61C405.724 323.795 415.778 320.528 426.473 320.528C437.853 320.528 448.34 324.02 456.955 330.251C464.608 326.351 473.24 324.272 482.141 324.272H521.654C550.957 324.272 574.8 347.722 574.8 376.545C574.8 391.745 568.126 406.104 556.486 415.957C552.144 419.632 547.23 422.561 541.952 424.667L506.166 522.921C505.992 523.389 505.819 523.849 505.637 524.317C495.436 549.812 473.552 558.894 456.478 558.894L456.469 558.885Z" fill="white"/>
<path d="M242.577 558.886C214.435 558.886 186.692 553.79 168.041 545.228C148.601 536.675 135.999 517.783 135.505 496.378C135.505 496.378 133.217 436.548 133.217 436.505C132.671 421.175 137.984 406.919 148.176 396.356C149.962 394.501 151.877 392.803 153.905 391.251C146.85 376.692 143.279 360.764 143.279 343.675C143.279 283.637 191.589 240.065 258.152 240.065C275.217 240.065 297.76 241.304 320.901 250.941C321.369 251.131 321.828 251.339 322.287 251.547C342.499 260.733 354.554 279.434 354.554 301.576V343.684C354.554 356.561 350.126 368.928 342.074 378.504C339.907 381.086 337.515 383.426 334.95 385.506C356.279 409.606 360.907 434.494 360.907 451.54C360.907 479.973 348.505 507.722 326.889 527.662C305.057 547.802 275.113 558.894 242.577 558.894V558.886Z" fill="white"/>
<path d="M540.774 555.142C527.556 555.142 514.929 550.557 505.213 542.229C493.669 532.341 487.056 517.991 487.056 502.869C487.056 488.769 492.88 475.111 503.038 465.397C505.248 463.282 507.622 461.385 510.127 459.712V419.658C497.56 409.935 489.942 395.211 489.942 378.867C489.942 353.424 508.056 332.366 533.987 327.651L568.473 321.386C571.975 320.701 575.52 320.363 579.03 320.363C608.411 320.363 631.43 343.657 631.43 373.399V459.729C633.944 461.402 636.318 463.3 638.529 465.414C648.686 475.129 654.51 488.786 654.51 502.886C654.51 518.008 647.889 532.35 636.353 542.247C626.637 550.575 614.001 555.168 600.784 555.168H540.791L540.774 555.142Z" fill="white"/>
<path d="M567.303 380.956C549.484 380.956 532.835 374.049 520.432 361.509C508.203 349.143 501.469 332.669 501.469 315.12C501.469 297.572 508.272 281.15 520.623 268.801C533.017 256.4 549.596 249.58 567.312 249.58C585.027 249.58 601.598 256.408 614.001 268.801C626.351 281.15 633.155 297.598 633.155 315.12C633.155 332.643 626.421 349.143 614.192 361.509C601.789 374.049 585.14 380.956 567.32 380.956H567.303Z" fill="white"/>
<path d="M763.107 558.886C734.567 558.886 706.486 546.883 686.049 525.946C664.824 504.203 653.141 474.496 653.141 442.302C653.141 410.108 663.506 382.455 682.331 360.192C703.964 334.61 734.706 320.52 768.88 320.52C789.81 320.52 809.138 325.026 824.764 333.553C848.694 346.604 862.986 369.144 862.986 393.851C862.986 407.352 858.747 419.875 851.554 430.135C871.15 446.124 876.376 473.5 863.8 496.56C863.471 497.158 863.133 497.756 862.778 498.345C852.291 515.738 841.231 528.399 827.988 538.174C809.372 551.918 787.548 558.886 763.116 558.886H763.107Z" fill="white"/>
<path d="M1165.36 558.885C1152.37 558.885 1132.73 557.559 1112.79 551.242C1090.18 544.231 1075.48 524.585 1075.01 500.849L1073.88 468.586C1073.45 457.389 1076.28 446.713 1081.95 437.631C1078.12 427.674 1076.15 416.85 1076.15 405.394C1076.15 380.358 1087.43 357.046 1107.11 341.447C1124.36 327.764 1147 320.528 1172.56 320.528C1186.46 320.528 1200.91 322.174 1215.5 325.415C1216.23 325.58 1216.97 325.762 1217.7 325.961C1241.4 332.426 1257.41 353.103 1257.72 377.559L1258.3 404.085C1258.3 404.423 1258.3 404.77 1258.3 405.108C1258.3 412.214 1256.94 419.164 1254.35 425.568C1262.66 438.212 1266.96 452.952 1266.96 469.123C1266.96 494.324 1255.65 518.311 1235.93 534.941C1217.34 550.609 1192.94 558.885 1165.36 558.885Z" fill="white"/>
<path d="M654.294 558.885C633.389 558.885 614.2 550.999 600.272 536.683C586.093 522.107 578.622 501.837 579.238 479.618L580.737 422.561C565.197 413.418 554.987 396.667 554.987 377.125C554.987 364.343 559.312 346.127 579.888 331.768L608.307 311.68C609.503 310.839 610.551 310.059 611.479 309.384C618.464 304.271 630.147 295.717 648.235 295.717C663.706 295.717 678.197 302.364 688.017 313.959C690.47 316.862 693.13 320.649 695.358 325.372C720.345 330.355 738.597 351.552 738.597 377.689C738.597 401.988 722.823 422.024 700.523 428.723V441.947C719.703 444.2 735.893 456.627 742.749 474.886C750.48 495.468 744.5 518.372 727.504 533.234C727.382 533.338 727.261 533.451 727.14 533.555C708.09 549.881 682.219 558.868 654.294 558.868V558.885Z" fill="white"/>
<path d="M1048.43 558.886C1019.4 558.886 991.067 546.84 970.699 525.842C949.725 504.221 938.181 474.548 938.181 442.302C938.181 411.971 948.416 382.932 967.016 360.53C988.432 334.732 1018.47 320.52 1051.61 320.52C1064.07 320.52 1088.34 322.521 1110.98 335.928C1138.37 352.15 1154.08 379.985 1154.08 412.301C1154.08 423.09 1151.22 432.934 1146.17 441.176C1157 457.087 1158.29 478.188 1148.26 496.551C1147.93 497.149 1147.59 497.747 1147.24 498.336C1140.67 509.238 1129.96 525.201 1112.95 537.957C1094.44 551.84 1072.74 558.877 1048.44 558.877L1048.43 558.886Z" fill="white"/>
<path d="M916.054 555.141C911.582 555.141 907.179 554.613 902.932 553.599C898.685 554.613 894.283 555.141 889.81 555.141H829.818C816.6 555.141 803.973 550.557 794.257 542.229C782.713 532.341 776.1 517.99 776.1 502.868C776.1 488.769 781.924 475.111 792.082 465.396C794.292 463.282 796.666 461.384 799.18 459.712V328.812C786.613 319.089 778.994 304.365 778.994 288.021C778.994 262.578 797.108 241.52 823.04 236.806L857.526 230.54C861.027 229.856 864.572 229.518 868.082 229.518C897.463 229.518 920.483 252.812 920.483 282.553V321.654C922.814 321.489 925.189 321.403 927.616 321.403C967.484 321.403 986.967 343.38 995.036 356.483C995.132 356.639 995.227 356.786 995.314 356.942C1006.72 375.955 1006.72 393.738 1006.72 409.44V459.72C1009.23 461.393 1011.61 463.291 1013.82 465.405C1023.98 475.12 1029.8 488.777 1029.8 502.877C1029.8 517.999 1023.18 532.341 1011.64 542.238C1001.93 550.566 989.29 555.158 976.073 555.158H916.08L916.054 555.141Z" fill="white"/>
<path d="M1274.58 315.363C1245.55 315.363 1217.22 303.317 1196.85 282.32C1175.87 260.698 1164.33 231.026 1164.33 198.78C1164.33 168.449 1174.56 139.409 1193.16 117.008C1214.58 91.2093 1244.62 76.9971 1277.76 76.9971C1290.22 76.9971 1314.48 78.9989 1337.13 92.4052C1364.52 108.628 1380.23 136.463 1380.23 168.778C1380.23 179.567 1377.36 189.412 1372.32 197.653C1383.15 213.564 1384.44 234.666 1374.42 253.029C1374.09 253.635 1373.75 254.233 1373.39 254.814C1366.82 265.716 1356.11 281.678 1339.1 294.435C1320.59 308.318 1298.88 315.363 1274.59 315.363H1274.58Z" fill="white"/>
<path d="M724.687 315.363C711.695 315.363 692.047 314.037 672.104 307.711C649.501 300.7 634.801 281.055 634.342 257.318L633.207 225.055C632.782 213.859 635.608 203.182 641.276 194.1C637.445 184.143 635.478 173.319 635.478 161.863C635.478 136.827 646.762 113.515 666.436 97.9167C683.692 84.2332 706.33 76.9971 731.889 76.9971C745.791 76.9971 760.239 78.6436 774.817 81.8847C775.553 82.0493 776.29 82.2313 777.027 82.4306C800.731 88.8954 816.739 109.581 817.051 134.028L817.623 160.554C817.623 160.892 817.632 161.239 817.632 161.577C817.632 168.683 816.271 175.633 813.679 182.037C821.982 194.681 826.29 209.422 826.29 225.592C826.29 250.793 814.979 274.78 795.253 291.41C776.671 307.078 752.265 315.363 724.687 315.363Z" fill="white"/>
<path d="M961.244 315.363C939.966 315.363 919.92 308.569 904.796 296.237C886.283 281.133 876.082 259.121 876.082 234.25C876.082 217.074 881.118 201.336 890.599 188.173C882.123 177.566 877.529 164.489 877.529 150.623C877.529 123.204 894.733 99.494 923.551 87.2057C938.978 80.6282 958.202 77.0059 977.694 77.0059C999.587 77.0059 1018.62 81.2695 1034.26 89.6842C1061.23 104.182 1076.7 130.388 1076.7 161.586C1076.7 170 1076.19 181.075 1075.65 192.792C1075.28 200.825 1074.89 209.075 1074.75 215.367C1087.04 225.055 1094.29 239.891 1094.29 255.594C1094.29 279.625 1077.75 299.92 1053.11 306.134L1029.42 312.131C1023.32 313.725 1017.61 314.505 1011.96 314.505C1004.84 314.505 997.983 313.231 991.648 310.788C982.062 313.795 971.835 315.372 961.253 315.372L961.244 315.363Z" fill="white"/>
<path d="M852.456 315.363C823.916 315.363 795.835 303.361 775.398 282.424C754.172 260.681 742.489 230.974 742.489 198.78C742.489 166.586 752.855 138.933 771.671 116.67C793.304 91.0879 824.046 76.9971 858.219 76.9971C879.15 76.9971 898.478 81.5034 914.104 90.0307C938.034 103.082 952.326 125.622 952.326 150.328C952.326 163.83 948.087 176.352 940.894 186.613C960.49 202.602 965.716 229.977 953.14 253.037C952.811 253.635 952.473 254.233 952.118 254.823C941.631 272.215 930.572 284.876 917.328 294.651C898.712 308.396 876.888 315.363 852.456 315.363Z" fill="white"/>
<path d="M607.769 315.363C578.735 315.363 550.403 303.317 530.035 282.32C509.061 260.698 497.517 231.026 497.517 198.78C497.517 168.449 507.752 139.409 526.352 117.008C547.768 91.2093 577.808 76.9971 610.95 76.9971C623.405 76.9971 647.672 78.9989 670.319 92.4052C697.707 108.628 713.42 136.463 713.42 168.778C713.42 179.567 710.551 189.421 705.507 197.653C716.341 213.555 717.623 234.657 707.604 253.02C707.275 253.627 706.928 254.225 706.573 254.814C700.003 265.716 689.3 281.678 672.286 294.435C653.774 308.318 632.072 315.354 607.778 315.354L607.769 315.363Z" fill="white"/>
<path d="M96.4341 311.611C66.3077 311.611 42.7075 288.776 42.7075 259.624C42.7075 245.524 48.5317 231.867 58.6894 222.152C64.8083 216.302 72.1666 212.099 80.2009 209.76V144.852C71.9326 150.207 62.0955 153.24 51.6432 153.24C36.8573 153.24 22.7734 146.992 13.0231 136.09C3.40272 125.344 -1.23411 110.89 0.28261 96.3828L5.14479 48.3561C6.54017 33.208 14.1758 19.4724 26.1796 10.5725C35.5052 3.65705 46.833 0 58.9494 0H243.539C264.114 0 283.329 7.04544 297.647 19.8364C313.395 33.9013 322.07 53.417 322.07 74.7786C322.07 96.1402 314.097 114.59 299.623 128.742C285.53 142.529 266.74 150.12 246.711 150.12C231.206 150.12 220.207 144.254 213.707 139.331C210.778 137.113 207.502 134.14 204.39 130.258V209.768C212.424 212.099 219.791 216.311 225.902 222.161C236.059 231.875 241.883 245.533 241.883 259.632C241.883 288.785 218.283 311.619 188.157 311.619H96.4428L96.4341 311.611Z" fill="white"/>
<path d="M1047.69 375.063C1034.47 375.063 1021.84 370.479 1012.13 362.151C1000.58 352.263 993.96 337.912 993.96 322.79C993.96 308.69 999.784 295.033 1009.94 285.318C1012.15 283.204 1014.53 281.306 1017.03 279.634V176.136C1004.46 166.413 996.846 151.689 996.846 135.345C996.846 109.902 1014.96 88.835 1040.89 84.1294L1075.38 77.8639C1078.88 77.1793 1082.42 76.8413 1085.93 76.8413C1093.78 76.8413 1101.17 78.5052 1107.79 81.5122C1117.06 79.2938 1127.47 77.8899 1139.11 77.8899C1169.28 77.8899 1196.85 89.7709 1216.74 111.349C1235.73 131.957 1246.19 160.147 1246.19 190.721C1246.19 221.294 1234.82 252.544 1214.16 275.543C1199.88 291.463 1182.14 302.85 1162.41 309.054C1163.63 313.5 1164.27 318.128 1164.27 322.799C1164.27 337.921 1157.65 352.272 1146.11 362.16C1136.39 370.488 1123.76 375.072 1110.55 375.072H1047.67L1047.69 375.063Z" fill="white"/>
<path d="M228.527 311.611C215.31 311.611 202.682 307.026 192.958 298.69C181.414 288.802 174.801 274.451 174.801 259.329C174.801 245.229 180.625 231.572 190.783 221.857C192.993 219.743 195.368 217.845 197.881 216.172V176.118C185.314 166.395 177.696 151.672 177.696 135.328C177.696 109.884 195.81 88.8174 221.741 84.1118L256.218 77.8463C259.72 77.1617 263.265 76.8237 266.775 76.8237C296.156 76.8237 319.175 100.118 319.175 129.859V216.19C321.689 217.862 324.055 219.76 326.265 221.875C336.423 231.589 342.247 245.247 342.247 259.346C342.247 274.468 335.625 288.819 324.081 298.707C314.365 307.035 301.729 311.619 288.52 311.619H228.527V311.611Z" fill="white"/>
<path d="M475.243 311.611C471.724 311.611 468.248 311.281 464.86 310.649C461.471 311.281 457.995 311.611 454.477 311.611H394.484C390.965 311.611 387.489 311.281 384.101 310.649C380.712 311.281 377.236 311.611 373.718 311.611H313.725C300.508 311.611 287.88 307.026 278.155 298.69C266.611 288.802 259.998 274.451 259.998 259.329C259.998 245.229 265.822 231.572 275.98 221.857C278.19 219.743 280.565 217.845 283.07 216.172V176.118C270.502 166.395 262.884 151.672 262.884 135.328C262.884 109.884 280.998 88.8174 306.93 84.1118L341.416 77.8463C344.917 77.1617 348.462 76.8237 351.963 76.8237C360.622 76.8237 368.734 78.8516 375.858 82.4653C385.288 79.7788 395.584 77.8723 406.011 77.8723C419.956 77.8723 432.896 80.8967 444.119 86.5816C456.531 81.9627 471.498 77.8723 486.77 77.8723C515.665 77.8723 540.236 90.8713 554.19 113.533C554.285 113.689 554.381 113.836 554.468 113.992C565.873 133.005 565.873 150.788 565.873 166.49V216.19C568.387 217.862 570.753 219.76 572.963 221.875C583.121 231.589 588.945 245.247 588.945 259.346C588.945 274.468 582.323 288.819 570.779 298.707C561.063 307.035 548.427 311.619 535.218 311.619H475.225L475.243 311.611Z" fill="white"/>
</g>
<path d="M1121.52 466.818L1122.67 499.696C1122.67 503.154 1124.11 504.887 1127 505.754C1140.55 510.078 1154.98 511.231 1165.36 511.231C1199.68 511.231 1219.29 491.334 1219.29 469.123C1219.29 446.912 1203.72 439.416 1175.16 426.729C1153.24 416.633 1146.03 410.29 1145.75 397.317C1145.75 384.335 1154.69 377.134 1167.67 376.839C1178.05 376.553 1193.62 382.897 1201.41 405.965C1203.72 412.595 1210.64 411.442 1210.64 405.099L1210.06 378.278C1210.06 374.82 1208.33 372.801 1205.16 371.934C1194.78 369.629 1183.81 368.182 1172.57 368.182C1142 368.182 1123.83 384.04 1123.83 405.385C1123.83 430.473 1141.14 440.855 1163.92 450.084C1184.69 459.027 1195.07 465.657 1195.07 479.791C1195.07 493.925 1185.27 502.574 1168.83 502.574C1149.5 502.574 1138.83 491.325 1131.33 465.951C1128.73 457.874 1121.24 459.894 1121.53 466.818M1011.23 409.718C1016.42 389.535 1031.13 376.839 1050.17 376.839C1068.05 376.839 1077.56 387.221 1077.56 398.469C1077.56 408.27 1070.35 409.718 1063.14 409.718H1011.23ZM1057.96 487.001C1031.71 487.001 1008.93 466.237 1008.93 427.882C1008.93 424.71 1009.22 421.252 1009.51 418.366H1100.37C1104.4 418.366 1106.42 416.928 1106.42 412.309C1106.42 376.839 1072.1 368.182 1051.62 368.182C1011.53 368.182 985.866 404.232 985.866 442.293C985.866 484.687 1015.86 511.214 1048.45 511.214C1078.73 511.214 1094.59 493.336 1106.42 473.725C1108.16 470.553 1107.58 468.248 1105.56 466.8C1103.54 465.648 1101.23 466.22 1098.93 468.82C1086.24 482.373 1072.97 486.992 1057.98 486.992M829.817 507.478H889.81C893.849 507.478 895.869 505.173 895.869 502.868C895.869 500.563 894.135 498.544 890.963 498.544C878.274 498.83 872.788 495.658 872.788 475.761V396.745L882.591 392.42C894.412 387.23 902.49 385.791 912.301 385.791C926.142 385.791 933.067 396.459 933.067 416.07V475.77C933.067 495.667 927.59 498.838 914.892 498.552C911.72 498.552 909.987 500.572 909.987 502.877C909.987 505.182 912.006 507.487 916.045 507.487H976.038C980.077 507.487 982.096 505.182 982.096 502.877C982.096 500.572 980.363 498.552 977.191 498.552C964.502 498.838 959.016 495.667 959.016 475.77V409.44C959.016 395.02 958.73 388.677 954.405 381.467C949.795 373.971 941.422 369.066 927.581 369.066C910.854 369.066 895.851 377.142 886.335 381.467L872.78 387.524V282.553C872.78 278.801 870.474 276.496 866.435 277.362L831.534 283.706C828.361 284.287 826.628 286.011 826.628 288.03C826.628 290.049 828.361 291.783 831.534 292.641C841.05 295.812 846.822 302.156 846.822 313.118V475.77C846.822 495.667 841.344 498.838 828.647 498.552C825.475 498.552 823.742 500.572 823.742 502.877C823.742 505.182 825.761 507.487 829.8 507.487M764.26 376.839C781.274 376.839 783.588 388.659 785.893 397.889C787.626 404.518 791.951 409.137 800.601 409.137C807.526 409.137 815.309 403.366 815.309 393.85C815.309 378.858 795.123 368.182 768.871 368.182C725.9 368.182 700.801 404.232 700.801 442.293C700.801 484.687 731.664 511.214 763.099 511.214C794.534 511.214 810.109 493.336 821.939 473.725C823.672 470.553 823.092 468.248 821.072 466.8C819.053 465.648 816.748 466.22 814.442 468.82C801.754 482.373 789.351 487.278 774.349 487.278C748.105 487.278 723.872 466.228 723.872 427.873C723.872 397.013 740.885 376.83 764.252 376.83M654.294 511.231C671.021 511.231 686.023 506.04 696.112 497.391C700.723 493.353 697.845 487.295 691.206 489.895C683.129 493.067 677.07 494.22 671.307 494.22C659.19 494.22 652.846 485.276 652.846 471.151V383.477H683.995C688.32 383.477 690.92 381.458 690.92 377.706C690.92 373.953 688.32 371.934 683.995 371.934H652.846V349.151C652.846 345.113 651.113 343.38 648.235 343.38C645.063 343.38 642.758 345.685 635.833 350.59L607.275 370.773C603.522 373.373 602.664 374.811 602.664 377.116C602.664 380.002 604.684 382.307 608.437 382.307H629.489L626.889 480.935C626.308 501.698 639.577 511.214 654.285 511.214M567.303 333.293C577.686 333.293 585.478 325.216 585.478 315.12C585.478 305.024 577.686 297.242 567.303 297.242C556.92 297.242 549.128 305.319 549.128 315.12C549.128 324.921 556.92 333.293 567.303 333.293ZM540.773 507.478H600.766C604.805 507.478 606.825 505.173 606.825 502.868C606.825 500.563 605.091 498.544 601.919 498.544C589.231 498.83 583.744 495.658 583.744 475.761V373.381C583.744 369.629 581.439 367.324 577.4 368.19L542.498 374.534C539.326 375.115 537.593 376.839 537.593 378.858C537.593 380.877 539.326 382.611 542.498 383.468C552.015 386.64 557.787 392.984 557.787 403.946V475.752C557.787 495.649 552.309 498.821 539.612 498.535C536.44 498.535 534.707 500.554 534.707 502.86C534.707 505.165 536.726 507.47 540.765 507.47M456.47 511.231C458.775 511.231 460.223 509.498 461.375 506.62L498.869 403.669C506.08 383.486 512.424 380.886 521.654 380.886C525.112 380.886 527.132 378.867 527.132 376.562C527.132 374.257 525.112 371.951 521.654 371.951H482.141C478.102 371.951 476.083 374.257 476.083 376.562C476.083 378.867 477.817 380.886 480.989 380.886H483.875C494.258 380.886 496.563 384.638 489.647 403.669L465.128 472.303L431.379 372.809C430.512 369.924 429.073 368.199 426.473 368.199C424.454 368.199 422.72 369.638 421.568 372.809L390.133 470.865L362.156 393.868C358.697 384.638 361.003 380.886 369.947 380.886H374.558C377.73 380.886 379.464 378.867 379.464 376.562C379.464 374.257 377.444 371.951 373.405 371.951H316.013C312.554 371.951 310.535 374.257 310.535 376.562C310.535 378.867 312.554 380.886 316.013 380.886C325.243 380.886 331.301 383.486 338.798 403.669L377.158 506.62C378.311 509.506 380.044 511.231 382.064 511.231C384.083 511.231 385.816 509.792 386.969 506.62L418.118 410.584L451.573 506.62C452.726 509.506 454.459 511.231 456.478 511.231M258.152 287.727C219.506 287.727 190.948 309.071 190.948 343.674C190.948 373.087 208.256 391.831 237.386 408.565C256.132 419.233 289.301 437.12 289.301 464.799C289.301 486.715 275.746 501.421 247.188 501.421C214.019 501.421 197.578 476.619 189.501 433.072C188.348 426.148 180.556 426.729 180.851 434.806L183.156 495.077C183.156 498.249 184.595 500.554 187.481 501.707C198.445 506.898 219.211 511.222 242.569 511.222C286.987 511.222 313.23 481.515 313.23 451.522C313.23 421.529 286.12 403.366 263.049 390.098C236.51 374.811 212.572 360.972 212.572 333.865C212.572 310.215 230.166 295.795 253.238 295.795C279.776 295.795 292.178 320.883 297.656 344.246C299.389 351.456 306.886 350.59 306.886 343.666V301.558C306.886 298.386 305.734 296.367 302.561 294.928C288.72 289.157 274.298 287.718 258.143 287.718" fill="black"/>
<path d="M1121.52 466.818L1122.67 499.696C1122.67 503.154 1124.11 504.887 1127 505.754C1140.55 510.078 1154.98 511.231 1165.36 511.231C1199.68 511.231 1219.29 491.334 1219.29 469.123C1219.29 446.912 1203.72 439.416 1175.16 426.729C1153.24 416.633 1146.03 410.29 1145.75 397.317C1145.75 384.335 1154.69 377.134 1167.67 376.839C1178.05 376.553 1193.62 382.897 1201.41 405.965C1203.72 412.595 1210.64 411.442 1210.64 405.099L1210.06 378.278C1210.06 374.82 1208.33 372.801 1205.16 371.934C1194.78 369.629 1183.81 368.182 1172.57 368.182C1142 368.182 1123.83 384.04 1123.83 405.385C1123.83 430.473 1141.14 440.855 1163.92 450.084C1184.69 459.027 1195.07 465.657 1195.07 479.791C1195.07 493.925 1185.27 502.574 1168.83 502.574C1149.5 502.574 1138.83 491.325 1131.33 465.951C1128.73 457.874 1121.24 459.894 1121.53 466.818M1057.96 487.001C1031.71 487.001 1008.93 466.237 1008.93 427.882C1008.93 424.71 1009.22 421.252 1009.51 418.366H1100.37C1104.4 418.366 1106.42 416.928 1106.42 412.309C1106.42 376.839 1072.1 368.182 1051.62 368.182C1011.53 368.182 985.866 404.232 985.866 442.293C985.866 484.687 1015.86 511.214 1048.45 511.214C1078.73 511.214 1094.59 493.336 1106.42 473.725C1108.16 470.553 1107.58 468.248 1105.56 466.8C1103.54 465.648 1101.23 466.22 1098.93 468.82C1086.24 482.373 1072.97 486.992 1057.98 486.992M829.817 507.478H889.81C893.849 507.478 895.869 505.173 895.869 502.868C895.869 500.563 894.135 498.544 890.963 498.544C878.274 498.83 872.788 495.658 872.788 475.761V396.745L882.591 392.42C894.412 387.23 902.49 385.791 912.301 385.791C926.142 385.791 933.067 396.459 933.067 416.07V475.77C933.067 495.667 927.59 498.838 914.892 498.552C911.72 498.552 909.987 500.572 909.987 502.877C909.987 505.182 912.006 507.487 916.045 507.487H976.038C980.077 507.487 982.096 505.182 982.096 502.877C982.096 500.572 980.363 498.552 977.191 498.552C964.502 498.838 959.016 495.667 959.016 475.77V409.44C959.016 395.02 958.73 388.677 954.405 381.467C949.795 373.971 941.422 369.066 927.581 369.066C910.854 369.066 895.851 377.142 886.335 381.467L872.78 387.524V282.553C872.78 278.801 870.474 276.496 866.435 277.362L831.534 283.706C828.361 284.287 826.628 286.011 826.628 288.03C826.628 290.049 828.361 291.783 831.534 292.641C841.05 295.812 846.822 302.156 846.822 313.118V475.77C846.822 495.667 841.344 498.838 828.647 498.552C825.475 498.552 823.742 500.572 823.742 502.877C823.742 505.182 825.761 507.487 829.8 507.487M764.26 376.839C781.274 376.839 783.588 388.659 785.893 397.889C787.626 404.518 791.951 409.137 800.601 409.137C807.526 409.137 815.309 403.366 815.309 393.85C815.309 378.858 795.123 368.182 768.871 368.182C725.9 368.182 700.801 404.232 700.801 442.293C700.801 484.687 731.664 511.214 763.099 511.214C794.534 511.214 810.109 493.336 821.939 473.725C823.672 470.553 823.092 468.248 821.072 466.8C819.053 465.648 816.748 466.22 814.442 468.82C801.754 482.373 789.351 487.278 774.349 487.278C748.105 487.278 723.872 466.228 723.872 427.873C723.872 397.013 740.885 376.83 764.252 376.83M654.294 511.231C671.021 511.231 686.023 506.04 696.112 497.391C700.723 493.353 697.845 487.295 691.206 489.895C683.129 493.067 677.07 494.22 671.307 494.22C659.19 494.22 652.846 485.276 652.846 471.151V383.477H683.995C688.32 383.477 690.92 381.458 690.92 377.706C690.92 373.953 688.32 371.934 683.995 371.934H652.846V349.151C652.846 345.113 651.113 343.38 648.235 343.38C645.063 343.38 642.758 345.685 635.833 350.59L607.275 370.773C603.522 373.373 602.664 374.811 602.664 377.116C602.664 380.002 604.684 382.307 608.437 382.307H629.489L626.889 480.935C626.308 501.698 639.577 511.214 654.285 511.214M540.773 507.478H600.766C604.805 507.478 606.825 505.173 606.825 502.868C606.825 500.563 605.091 498.544 601.919 498.544C589.231 498.83 583.744 495.658 583.744 475.761V373.381C583.744 369.629 581.439 367.324 577.4 368.19L542.498 374.534C539.326 375.115 537.593 376.839 537.593 378.858C537.593 380.877 539.326 382.611 542.498 383.468C552.015 386.64 557.787 392.984 557.787 403.946V475.752C557.787 495.649 552.309 498.821 539.612 498.535C536.44 498.535 534.707 500.554 534.707 502.86C534.707 505.165 536.726 507.47 540.765 507.47M456.47 511.231C458.775 511.231 460.223 509.498 461.375 506.62L498.869 403.669C506.08 383.486 512.424 380.886 521.654 380.886C525.112 380.886 527.132 378.867 527.132 376.562C527.132 374.257 525.112 371.951 521.654 371.951H482.141C478.102 371.951 476.083 374.257 476.083 376.562C476.083 378.867 477.817 380.886 480.989 380.886H483.875C494.258 380.886 496.563 384.638 489.647 403.669L465.128 472.303L431.379 372.809C430.512 369.924 429.073 368.199 426.473 368.199C424.454 368.199 422.72 369.638 421.568 372.809L390.133 470.865L362.156 393.868C358.697 384.638 361.003 380.886 369.947 380.886H374.558C377.73 380.886 379.464 378.867 379.464 376.562C379.464 374.257 377.444 371.951 373.405 371.951H316.013C312.554 371.951 310.535 374.257 310.535 376.562C310.535 378.867 312.554 380.886 316.013 380.886C325.243 380.886 331.301 383.486 338.798 403.669L377.158 506.62C378.311 509.506 380.044 511.231 382.064 511.231C384.083 511.231 385.816 509.792 386.969 506.62L418.118 410.584L451.573 506.62C452.726 509.506 454.459 511.231 456.478 511.231M258.152 287.727C219.506 287.727 190.948 309.071 190.948 343.674C190.948 373.087 208.256 391.831 237.386 408.565C256.132 419.233 289.301 437.12 289.301 464.799C289.301 486.715 275.746 501.421 247.188 501.421C214.019 501.421 197.578 476.619 189.501 433.072C188.348 426.148 180.556 426.729 180.851 434.806L183.156 495.077C183.156 498.249 184.595 500.554 187.481 501.707C198.445 506.898 219.211 511.222 242.569 511.222C286.987 511.222 313.23 481.515 313.23 451.522C313.23 421.529 286.12 403.366 263.049 390.098C236.51 374.811 212.572 360.972 212.572 333.865C212.572 310.215 230.166 295.795 253.238 295.795C279.776 295.795 292.178 320.883 297.656 344.246C299.389 351.456 306.886 350.59 306.886 343.666V301.558C306.886 298.386 305.734 296.367 302.561 294.928C288.72 289.157 274.298 287.718 258.143 287.718M1011.23 409.718C1016.42 389.535 1031.13 376.839 1050.17 376.839C1068.05 376.839 1077.56 387.221 1077.56 398.469C1077.56 408.27 1070.35 409.718 1063.14 409.718H1011.23ZM567.303 333.293C577.686 333.293 585.478 325.216 585.478 315.12C585.478 305.024 577.686 297.242 567.303 297.242C556.92 297.242 549.128 305.319 549.128 315.12C549.128 324.921 556.92 333.293 567.303 333.293Z" stroke="#030303" stroke-miterlimit="10"/>
<path d="M1237.38 166.187C1242.57 146.004 1257.28 133.308 1276.32 133.308C1294.2 133.308 1303.72 143.69 1303.72 154.939C1303.72 164.74 1296.51 166.187 1289.3 166.187H1237.38ZM1284.11 243.479C1257.86 243.479 1235.08 222.715 1235.08 184.36C1235.08 181.188 1235.36 177.73 1235.66 174.844H1326.51C1330.55 174.844 1332.57 173.406 1332.57 168.787C1332.57 133.317 1298.25 124.66 1277.77 124.66C1237.68 124.66 1212.01 160.71 1212.01 198.771C1212.01 241.165 1242.01 267.691 1274.6 267.691C1304.88 267.691 1320.74 249.814 1332.57 230.202C1334.31 227.031 1333.72 224.726 1331.71 223.278C1329.69 222.126 1327.38 222.698 1325.07 225.298C1312.39 238.851 1299.12 243.47 1284.12 243.47M1090.66 220.982V150.614C1101.33 145.709 1112.58 143.118 1123.83 143.118C1154.4 143.118 1171.7 167.634 1171.7 203.971C1171.7 233.097 1159.3 258.185 1126.42 258.185C1106.23 258.185 1090.66 245.784 1090.66 220.982ZM1139.12 125.526C1117.77 125.526 1103.06 132.45 1090.66 140.518V129.851C1090.66 126.098 1088.35 123.793 1084.31 124.66L1049.41 131.003C1046.24 131.584 1044.51 133.308 1044.51 135.328C1044.51 137.347 1046.24 139.08 1049.41 139.938C1058.93 143.11 1064.7 149.453 1064.7 160.415V295.665C1064.7 315.562 1059.22 318.734 1046.53 318.448C1043.35 318.448 1041.62 320.467 1041.62 322.772C1041.62 325.077 1043.64 327.383 1047.68 327.383H1110.56C1114.6 327.383 1116.62 325.077 1116.62 322.772C1116.62 320.467 1114.88 318.448 1111.71 318.448H1107.1C1095.56 318.448 1090.66 314.696 1090.66 295.665V258.462C1100.76 263.939 1111.71 266.825 1126.42 266.825C1169.68 266.825 1198.53 230.488 1198.53 190.694C1198.53 150.9 1173.44 125.518 1139.12 125.518M950.002 229.059C950.002 213.486 961.252 202.237 984.904 202.237C990.382 202.237 996.154 202.818 1003.36 203.971V217.524C1003.36 239.154 987.504 250.403 973.082 250.403C959.813 250.403 950.011 242.326 950.011 229.059M1017.49 265.967L1041.43 259.909C1044.89 259.043 1046.62 257.31 1046.62 255.585C1046.62 252.985 1044.32 251.833 1041.14 251.261C1031.63 249.242 1027.01 246.936 1027.01 231.936V220.115C1027.01 205.123 1029.03 176.283 1029.03 161.577C1029.03 131.012 999.898 124.66 977.685 124.66C953.166 124.66 925.189 133.022 925.189 150.614C925.189 157.824 930.961 163.301 938.172 163.301C946.535 163.301 951.155 158.691 952.308 152.053C954.613 141.671 961.252 133.308 978.265 133.308C998.165 133.308 1003.36 148.014 1003.36 174.836V190.408L975.093 195.019C944.811 199.924 923.75 210.591 923.75 234.241C923.75 256.443 941.058 267.691 961.243 267.691C977.399 267.691 993.831 260.767 1003.06 245.195C1003.06 249.519 1003.06 254.138 1003.93 258.748C1005.37 265.958 1008.83 268.263 1017.48 265.958M853.608 133.308C870.621 133.308 872.935 145.129 875.241 154.358C876.974 160.987 881.299 165.606 889.949 165.606C896.874 165.606 904.657 159.835 904.657 150.32C904.657 135.328 884.471 124.651 858.219 124.651C815.248 124.651 790.148 160.701 790.148 198.762C790.148 241.156 821.012 267.683 852.447 267.683C883.882 267.683 899.456 249.805 911.287 230.194C913.02 227.022 912.44 224.717 910.42 223.27C908.401 222.117 906.095 222.689 903.79 225.289C891.101 238.842 878.699 243.747 863.696 243.747C837.453 243.747 813.22 222.698 813.22 184.342C813.22 153.483 830.233 133.3 853.599 133.3M680.849 223.287L682.002 256.166C682.002 259.623 683.44 261.357 686.327 262.223C699.882 266.548 714.304 267.7 724.687 267.7C759.008 267.7 778.621 247.803 778.621 225.592C778.621 203.381 763.047 195.885 734.489 183.198C712.57 173.102 705.359 166.759 705.073 153.786C705.073 140.804 714.018 133.603 726.992 133.308C737.375 133.022 752.95 139.366 760.741 162.435C763.047 169.064 769.972 167.912 769.972 161.568L769.391 134.747C769.391 131.289 767.658 129.27 764.485 128.403C754.102 126.098 743.139 124.651 731.898 124.651C701.329 124.651 683.154 140.51 683.154 161.854C683.154 186.942 700.462 197.324 723.248 206.553C744.014 215.496 754.397 222.126 754.397 236.26C754.397 250.394 744.595 259.043 728.154 259.043C708.826 259.043 698.157 247.794 690.66 222.42C688.06 214.344 680.563 216.363 680.858 223.287M570.562 166.187C575.753 146.004 590.461 133.308 609.502 133.308C627.382 133.308 636.899 143.69 636.899 154.939C636.899 164.74 629.688 166.187 622.477 166.187H570.562ZM617.285 243.479C591.042 243.479 568.256 222.715 568.256 184.36C568.256 181.188 568.542 177.73 568.837 174.844H659.693C663.732 174.844 665.751 173.406 665.751 168.787C665.751 133.317 631.43 124.66 610.95 124.66C570.856 124.66 545.193 160.71 545.193 198.771C545.193 241.165 575.19 267.691 607.778 267.691C638.06 267.691 653.921 249.814 665.751 230.202C667.485 227.031 666.904 224.726 664.885 223.278C662.865 222.126 660.56 222.698 658.254 225.298C645.566 238.851 632.297 243.47 617.303 243.47M411.505 171.664V232.222C411.505 252.119 406.028 255.29 393.331 255.004C390.158 255.004 388.425 257.024 388.425 259.329C388.425 261.634 390.444 263.939 394.483 263.939H454.476C458.515 263.939 460.534 261.634 460.534 259.329C460.534 257.024 458.801 255.004 455.629 255.004C442.94 255.29 437.454 252.119 437.454 232.222V166.473C437.454 159.844 437.454 155.225 436.873 150.9L441.779 148.881C453.601 143.69 461.678 141.385 471.489 141.385C485.331 141.385 492.255 152.053 492.255 171.664V232.222C492.255 252.119 486.778 255.29 474.081 255.004C470.909 255.004 469.175 257.024 469.175 259.329C469.175 261.634 471.195 263.939 475.234 263.939H535.226C539.265 263.939 541.285 261.634 541.285 259.329C541.285 257.024 539.551 255.004 536.379 255.004C523.691 255.29 518.204 252.119 518.204 232.222V166.473C518.204 152.053 517.918 145.709 513.594 138.499C508.983 131.003 500.61 125.518 486.769 125.518C470.042 125.518 449.562 135.899 440.046 140.224L434.854 142.529C434.273 141.09 433.701 139.929 432.835 138.491C428.224 130.995 419.852 125.509 406.01 125.509C389.283 125.509 368.803 135.891 359.287 140.215L356.686 141.368V129.833C356.686 126.081 354.381 123.776 350.342 124.642L315.44 130.986C312.268 131.566 310.535 133.291 310.535 135.31C310.535 137.329 312.268 139.063 315.44 139.92C324.957 143.092 330.729 149.436 330.729 160.398V232.204C330.729 252.101 325.251 255.273 312.554 254.987C309.382 254.987 307.649 257.006 307.649 259.311C307.649 261.617 309.668 263.922 313.707 263.922H373.7C377.739 263.922 379.758 261.617 379.758 259.311C379.758 257.006 378.025 254.987 374.853 254.987C362.164 255.273 356.678 252.101 356.678 232.204V150.883L361.003 148.864C372.824 143.673 380.902 141.368 390.713 141.368C404.554 141.368 411.479 152.035 411.479 171.647M243.53 47.6626H58.9409C55.4828 47.6626 52.8827 49.1012 52.5967 52.8535L47.6911 101.305C47.1105 106.496 54.6161 107.076 56.0548 102.458C60.3796 90.0565 67.0185 57.7585 93.8342 57.7585H127.869V232.23C127.869 253.861 116.62 255.299 95.2816 255.299C92.1094 255.299 90.376 257.318 90.376 259.623C90.376 261.929 92.3955 263.948 96.4343 263.948H188.148C192.187 263.948 194.207 261.929 194.207 259.623C194.207 257.318 192.473 255.299 189.301 255.299C167.954 255.299 156.713 253.861 156.713 232.23V57.7585H205.456C232.281 57.7585 237.758 86.8848 239.778 96.114C240.93 101.591 243.53 102.458 246.702 102.458C261.991 102.458 274.393 90.9231 274.393 74.7697C274.393 58.6164 261.991 47.6626 243.53 47.6626ZM228.528 263.948H288.521C292.559 263.948 294.579 261.643 294.579 259.337C294.579 257.032 292.845 255.013 289.673 255.013C276.985 255.299 271.499 252.127 271.499 232.23V129.851C271.499 126.098 269.193 123.793 265.154 124.66L230.253 131.003C227.08 131.584 225.347 133.308 225.347 135.328C225.347 137.347 227.08 139.08 230.253 139.938C239.769 143.11 245.541 149.453 245.541 160.415V232.222C245.541 252.119 240.064 255.29 227.366 255.004C224.194 255.004 222.461 257.024 222.461 259.329C222.461 261.634 224.48 263.939 228.519 263.939" fill="black"/>
<path d="M1284.11 243.479C1257.86 243.479 1235.08 222.715 1235.08 184.36C1235.08 181.188 1235.36 177.73 1235.66 174.844H1326.51C1330.55 174.844 1332.57 173.406 1332.57 168.787C1332.57 133.317 1298.25 124.66 1277.77 124.66C1237.68 124.66 1212.01 160.71 1212.01 198.771C1212.01 241.165 1242.01 267.691 1274.6 267.691C1304.88 267.691 1320.74 249.814 1332.57 230.202C1334.31 227.031 1333.72 224.726 1331.71 223.278C1329.69 222.126 1327.38 222.698 1325.07 225.298C1312.39 238.851 1299.12 243.47 1284.12 243.47M1139.12 125.526C1117.77 125.526 1103.06 132.45 1090.66 140.518V129.851C1090.66 126.098 1088.35 123.793 1084.31 124.66L1049.41 131.003C1046.24 131.584 1044.51 133.308 1044.51 135.328C1044.51 137.347 1046.24 139.08 1049.41 139.938C1058.93 143.11 1064.7 149.453 1064.7 160.415V295.665C1064.7 315.562 1059.22 318.734 1046.53 318.448C1043.35 318.448 1041.62 320.467 1041.62 322.772C1041.62 325.077 1043.64 327.383 1047.68 327.383H1110.56C1114.6 327.383 1116.62 325.077 1116.62 322.772C1116.62 320.467 1114.88 318.448 1111.71 318.448H1107.1C1095.56 318.448 1090.66 314.696 1090.66 295.665V258.462C1100.76 263.939 1111.71 266.825 1126.42 266.825C1169.68 266.825 1198.53 230.488 1198.53 190.694C1198.53 150.9 1173.44 125.518 1139.12 125.518M950.002 229.059C950.002 213.486 961.252 202.237 984.904 202.237C990.382 202.237 996.154 202.818 1003.36 203.971V217.524C1003.36 239.154 987.504 250.403 973.082 250.403C959.813 250.403 950.011 242.326 950.011 229.059M1017.49 265.967L1041.43 259.909C1044.89 259.043 1046.62 257.31 1046.62 255.585C1046.62 252.985 1044.32 251.833 1041.14 251.261C1031.63 249.242 1027.01 246.936 1027.01 231.936V220.115C1027.01 205.123 1029.03 176.283 1029.03 161.577C1029.03 131.012 999.898 124.66 977.685 124.66C953.166 124.66 925.189 133.022 925.189 150.614C925.189 157.824 930.961 163.301 938.172 163.301C946.535 163.301 951.155 158.691 952.308 152.053C954.613 141.671 961.252 133.308 978.265 133.308C998.165 133.308 1003.36 148.014 1003.36 174.836V190.408L975.093 195.019C944.811 199.924 923.75 210.591 923.75 234.241C923.75 256.443 941.058 267.691 961.243 267.691C977.399 267.691 993.831 260.767 1003.06 245.195C1003.06 249.519 1003.06 254.138 1003.93 258.748C1005.37 265.958 1008.83 268.263 1017.48 265.958M853.608 133.308C870.621 133.308 872.935 145.129 875.241 154.358C876.974 160.987 881.299 165.606 889.949 165.606C896.874 165.606 904.657 159.835 904.657 150.32C904.657 135.328 884.471 124.651 858.219 124.651C815.248 124.651 790.148 160.701 790.148 198.762C790.148 241.156 821.012 267.683 852.447 267.683C883.882 267.683 899.456 249.805 911.287 230.194C913.02 227.022 912.44 224.717 910.42 223.27C908.401 222.117 906.095 222.689 903.79 225.289C891.101 238.842 878.699 243.747 863.696 243.747C837.453 243.747 813.22 222.698 813.22 184.342C813.22 153.483 830.233 133.3 853.599 133.3M680.849 223.287L682.002 256.166C682.002 259.623 683.44 261.357 686.327 262.223C699.882 266.548 714.304 267.7 724.687 267.7C759.008 267.7 778.621 247.803 778.621 225.592C778.621 203.381 763.047 195.885 734.489 183.198C712.57 173.102 705.359 166.759 705.073 153.786C705.073 140.804 714.018 133.603 726.992 133.308C737.375 133.022 752.95 139.366 760.741 162.435C763.047 169.064 769.972 167.912 769.972 161.568L769.391 134.747C769.391 131.289 767.658 129.27 764.485 128.403C754.102 126.098 743.139 124.651 731.898 124.651C701.329 124.651 683.154 140.51 683.154 161.854C683.154 186.942 700.462 197.324 723.248 206.553C744.014 215.496 754.397 222.126 754.397 236.26C754.397 250.394 744.595 259.043 728.154 259.043C708.826 259.043 698.157 247.794 690.66 222.42C688.06 214.344 680.563 216.363 680.858 223.287M617.285 243.479C591.042 243.479 568.256 222.715 568.256 184.36C568.256 181.188 568.542 177.73 568.837 174.844H659.693C663.732 174.844 665.751 173.406 665.751 168.787C665.751 133.317 631.43 124.66 610.95 124.66C570.856 124.66 545.193 160.71 545.193 198.771C545.193 241.165 575.19 267.691 607.778 267.691C638.06 267.691 653.921 249.814 665.751 230.202C667.485 227.031 666.904 224.726 664.885 223.278C662.865 222.126 660.56 222.698 658.254 225.298C645.566 238.851 632.297 243.47 617.303 243.47M411.505 171.664V232.222C411.505 252.119 406.028 255.29 393.331 255.004C390.158 255.004 388.425 257.024 388.425 259.329C388.425 261.634 390.444 263.939 394.483 263.939H454.476C458.515 263.939 460.534 261.634 460.534 259.329C460.534 257.024 458.801 255.004 455.629 255.004C442.94 255.29 437.454 252.119 437.454 232.222V166.473C437.454 159.844 437.454 155.225 436.873 150.9L441.779 148.881C453.601 143.69 461.678 141.385 471.489 141.385C485.331 141.385 492.255 152.053 492.255 171.664V232.222C492.255 252.119 486.778 255.29 474.081 255.004C470.909 255.004 469.175 257.024 469.175 259.329C469.175 261.634 471.195 263.939 475.234 263.939H535.226C539.265 263.939 541.285 261.634 541.285 259.329C541.285 257.024 539.551 255.004 536.379 255.004C523.691 255.29 518.204 252.119 518.204 232.222V166.473C518.204 152.053 517.918 145.709 513.594 138.499C508.983 131.003 500.61 125.518 486.769 125.518C470.042 125.518 449.562 135.899 440.046 140.224L434.854 142.529C434.273 141.09 433.701 139.929 432.835 138.491C428.224 130.995 419.852 125.509 406.01 125.509C389.283 125.509 368.803 135.891 359.287 140.215L356.686 141.368V129.833C356.686 126.081 354.381 123.776 350.342 124.642L315.44 130.986C312.268 131.566 310.535 133.291 310.535 135.31C310.535 137.329 312.268 139.063 315.44 139.92C324.957 143.092 330.729 149.436 330.729 160.398V232.204C330.729 252.101 325.251 255.273 312.554 254.987C309.382 254.987 307.649 257.006 307.649 259.311C307.649 261.617 309.668 263.922 313.707 263.922H373.7C377.739 263.922 379.758 261.617 379.758 259.311C379.758 257.006 378.025 254.987 374.853 254.987C362.164 255.273 356.678 252.101 356.678 232.204V150.883L361.003 148.864C372.824 143.673 380.902 141.368 390.713 141.368C404.554 141.368 411.479 152.035 411.479 171.647M228.528 263.948H288.521C292.559 263.948 294.579 261.643 294.579 259.337C294.579 257.032 292.845 255.013 289.673 255.013C276.985 255.299 271.499 252.127 271.499 232.23V129.851C271.499 126.098 269.193 123.793 265.154 124.66L230.253 131.003C227.08 131.584 225.347 133.308 225.347 135.328C225.347 137.347 227.08 139.08 230.253 139.938C239.769 143.11 245.541 149.453 245.541 160.415V232.222C245.541 252.119 240.064 255.29 227.366 255.004C224.194 255.004 222.461 257.024 222.461 259.329C222.461 261.634 224.48 263.939 228.519 263.939M1237.38 166.187C1242.57 146.004 1257.28 133.308 1276.32 133.308C1294.2 133.308 1303.72 143.69 1303.72 154.939C1303.72 164.74 1296.51 166.187 1289.3 166.187H1237.38ZM1090.66 220.982V150.614C1101.33 145.709 1112.58 143.118 1123.83 143.118C1154.4 143.118 1171.7 167.634 1171.7 203.971C1171.7 233.097 1159.3 258.185 1126.42 258.185C1106.23 258.185 1090.66 245.784 1090.66 220.982ZM570.562 166.187C575.753 146.004 590.461 133.308 609.502 133.308C627.382 133.308 636.899 143.69 636.899 154.939C636.899 164.74 629.688 166.187 622.477 166.187H570.562ZM243.53 47.6626H58.9409C55.4828 47.6626 52.8827 49.1012 52.5967 52.8535L47.6911 101.305C47.1105 106.496 54.6161 107.076 56.0548 102.458C60.3796 90.0565 67.0185 57.7585 93.8342 57.7585H127.869V232.23C127.869 253.861 116.62 255.299 95.2816 255.299C92.1094 255.299 90.376 257.318 90.376 259.623C90.376 261.929 92.3955 263.948 96.4343 263.948H188.148C192.187 263.948 194.207 261.929 194.207 259.623C194.207 257.318 192.473 255.299 189.301 255.299C167.954 255.299 156.713 253.861 156.713 232.23V57.7585H205.456C232.281 57.7585 237.758 86.8848 239.778 96.114C240.93 101.591 243.53 102.458 246.702 102.458C261.991 102.458 274.393 90.9231 274.393 74.7697C274.393 58.6164 261.991 47.6626 243.53 47.6626Z" stroke="#030303" stroke-miterlimit="10"/>
<defs>
<filter id="filter0_i_701_965" x="0" y="0" width="1381.24" height="558.895" filterUnits="userSpaceOnUse" color-interpolation-filters="sRGB">
<feFlood flood-opacity="0" result="BackgroundImageFix"/>
<feBlend mode="normal" in="SourceGraphic" in2="BackgroundImageFix" result="shape"/>
<feColorMatrix in="SourceAlpha" type="matrix" values="0 0 0 0 0 0 0 0 0 0 0 0 0 0 0 0 0 0 127 0" result="hardAlpha"/>
<feOffset/>
<feGaussianBlur stdDeviation="30"/>
<feComposite in2="hardAlpha" operator="arithmetic" k2="-1" k3="1"/>
<feColorMatrix type="matrix" values="0 0 0 0 0.510955 0 0 0 0 0.0568642 0 0 0 0 0.755465 0 0 0 1 0"/>
<feBlend mode="normal" in2="shape" result="effect1_innerShadow_701_965"/>
</filter>
</defs>
</svg>
